Title                            : Kick-Ass
Year                             : 2010
Genre                            : Action | Crime | Thriller
iMDB URL                         : http://www.imdb.com/title/tt1250777/

Complete name                    : Kick-Ass.2010.BRRIP.720P.H264-ZEKTORM.mp4
Format                           : MPEG-4
Format profile                   : Base Media
Codec ID                         : isom
File size                        : 1.85 GiB
Duration                         : 1h 57mn
Overall bit rate                 : 2254 Kbps
Subtitles                        : English, Spanish (Selectable) / English, Spanish (Format: srt)

Video
ID                               : 1
Format                           : AVC
Format/Info                      : Advanced Video Codec
Format profile                   : High@L4.0
Format settings, CABAC           : Yes
Format settings, ReFrames        : 4 frames
Codec ID                         : avc1
Codec ID/Info                    : Advanced Video Coding
Duration                         : 1h 57mn
Bit rate mode                    : Variable
Bit rate                         : 1951 Kbps

Width                            : 1280 pixels
Height                           : 528 pixels
Display aspect ratio             : 2.424
Frame rate mode                  : Constant
Frame rate                       : 23.976 fps
Resolution                       : 24 bits
Colorimetry                      : 4:2:0
Scan type                        : Progressive
Bits/(Pixel*Frame)               : 0.120
Stream size                      : 1.60 GiB (86%)
Title                            : Video
Writing library                  : x264

Audio #1
ID                               : 2
Format                           : AAC
Format/Info                      : Advanced Audio Codec
Format version                   : Version 4
Format profile                   : LC
Format settings, SBR             : Yes
Format settings, PS              : No
Codec ID                         : 40
Duration                         : 1h 57mn
Bit rate mode                    : Variable
Bit rate                         : 220 Kbps
Maximum bit rate                 : 260 Kbps
Channel(s)                       : 6 channels
Channel positions                : Front: L C R, Rear: L R, LFE
Sampling rate                    : 48.0 KHz
Resolution                       : 16 bits
Stream size                      : 185 MiB (10%)
Title                            : English
Language                         : English

Audio #2
ID                               : 3
Format                           : AAC
Format/Info                      : Advanced Audio Codec
Format version                   : Version 4
Format profile                   : LC
Format settings, SBR             : Yes
Format settings, PS              : No
Codec ID                         : 40
Duration                         : 1h 57mn
Bit rate mode                    : Variable
Bit rate                         : 82.2 Kbps
Maximum bit rate                 : 106 Kbps
Channel(s)                       : 2 channels
Channel positions                : L R
Sampling rate                    : 48.0 KHz
Resolution                       : 16 bits
Stream size                      : 69.3 MiB (4%)
Language                         : English

Text #1
ID                               : 4
Format                           : Timed text
Codec ID                         : tx3g
Duration                         : 1h 50mn
Bit rate mode                    : Variable
Bit rate                         : 63 bps
Stream size                      : 52.0 KiB (0%)
Language                         : English

Text #2
ID                               : 5
Format                           : Timed text
Codec ID                         : tx3g
Duration                         : 1h 50mn
Bit rate mode                    : Variable
Bit rate                         : 67 bps
Stream size                      : 55.1 KiB (0%)
Language                         : English

Text #3
ID                               : 6
Format                           : Timed text
Codec ID                         : tx3g
Duration                         : 1h 57mn
Bit rate mode                    : Variable
Bit rate                         : 64 bps
Stream size                      : 56.0 KiB (0%)
Language                         : Spanish